<?xml version="1.0" standalone="no"?>
<!DOCTYPE svg PUBLIC "-//W3C//DTD SVG 20010904//EN"
 "http://www.w3.org/TR/2001/REC-SVG-20010904/DTD/svg10.dtd">
<svg version="1.0" xmlns="http://www.w3.org/2000/svg"
 width="225.000000pt" height="225.000000pt" viewBox="0 0 225.000000 225.000000"
 preserveAspectRatio="xMidYMid meet">
<metadata>
Created by potrace 1.14, written by Peter Selinger 2001-2017
</metadata>
<g transform="translate(0.000000,225.000000) scale(0.100000,-0.100000)"
fill="#000000" stroke="none">
<path d="M1785 1780 c-173 -173 -198 -202 -185 -213 188 -175 307 -267 481
-372 l119 -72 -84 -52 c-105 -64 -262 -177 -339 -244 l-58 -50 -292 143 -292
142 -283 -141 -282 -141 -75 60 c-89 70 -235 167 -355 235 -47 27 -88 53 -91
58 -3 5 -10 0 -15 -10 -6 -11 -11 48 -14 167 -5 153 -6 123 -8 -166 -2 -342
-1 -354 22 -446 69 -272 277 -511 528 -608 162 -63 180 -65 563 -64 298 0 360
2 419 17 347 87 604 346 683 689 23 101 21 699 -3 816 -30 146 -105 300 -197
405 l-42 47 -200 -200z"/>
<path d="M210 1918 c-42 -54 -52 -72 -22 -38 29 32 65 80 59 80 -2 0 -19 -19
-37 -42z"/>
<path d="M138 1818 c-23 -35 -60 -110 -56 -113 2 -2 20 28 40 66 37 68 44 90
16 47z"/>
<path d="M51 1628 c-11 -35 -23 -83 -26 -108 -4 -38 -3 -36 10 15 7 33 21 80
29 104 9 24 14 46 12 48 -2 2 -13 -24 -25 -59z"/>
<path d="M535 1493 c-38 -36 -115 -99 -170 -140 -113 -85 -144 -112 -71 -63
71 48 234 181 281 229 59 62 39 49 -40 -26z"/>
<path d="M210 1239 c-22 -18 -22 -19 -3 -10 12 6 25 16 28 21 9 15 3 12 -25
-11z"/>
<path d="M107 1176 c-48 -29 -61 -43 -22 -23 31 16 74 46 65 46 -3 0 -22 -10
-43 -23z"/>
</g>
</svg>
